<?xml version="1.0" standalone="no"?>
<!DOCTYPE svg PUBLIC "-//W3C//DTD SVG 20010904//EN"
 "http://www.w3.org/TR/2001/REC-SVG-20010904/DTD/svg10.dtd">
<svg version="1.0" xmlns="http://www.w3.org/2000/svg"
 width="880.000000pt" height="880.000000pt" viewBox="0 0 880.000000 880.000000"
 preserveAspectRatio="xMidYMid meet">
<metadata>
Created by potrace 1.14, written by Peter Selinger 2001-2017
</metadata>
<g transform="translate(0.000000,880.000000) scale(0.100000,-0.100000)"
fill="#000000" stroke="none">
<path d="M4185 8334 c-131 -11 -340 -37 -435 -55 -570 -108 -1104 -352 -1560
-713 -158 -125 -458 -426 -574 -576 -423 -548 -670 -1155 -741 -1825 -19 -182
-19 -548 0 -730 84 -794 428 -1530 979 -2094 l131 -134 -85 6 c-47 4 -114 9
-150 12 l-65 6 -38 -48 c-123 -153 -139 -224 -77 -327 19 -31 51 -77 71 -101
l37 -44 -66 -198 -66 -198 -5 -244 -6 -244 -65 -22 c-117 -39 -183 -85 -216
-147 -34 -66 -7 -151 65 -204 85 -62 179 -94 325 -109 1559 -164 3177 -189
4705 -75 459 35 917 82 986 101 97 27 179 84 206 143 61 135 -48 271 -241 302
l-40 7 0 225 0 225 -70 218 -70 218 50 66 c68 89 92 139 92 190 0 49 -17 85
-77 170 -74 104 -65 100 -216 86 -72 -7 -133 -10 -136 -7 -4 3 50 63 119 134
546 560 889 1296 973 2087 19 182 19 548 0 729 -71 670 -318 1278 -741 1826
-116 150 -416 451 -574 576 -524 415 -1139 670 -1805 750 -125 15 -517 26
-620 18z m285 -139 c0 -19 4 -23 17 -18 12 5 15 2 10 -10 -5 -13 -1 -17 18
-17 14 0 25 -4 25 -10 0 -5 -11 -10 -25 -10 -19 0 -23 -4 -18 -17 5 -12 2 -15
-10 -10 -13 5 -17 1 -17 -18 0 -14 -4 -25 -10 -25 -5 0 -10 11 -10 25 0 19 -4
23 -17 18 -12 -5 -15 -2 -10 10 5 13 1 17 -18 17 -14 0 -25 5 -25 10 0 6 11
10 25 10 19 0 23 4 18 17 -5 12 -2 15 10 10 13 -5 17 -1 17 18 0 14 5 25 10
25 6 0 10 -11 10 -25z m1000 -300 c0 -19 4 -23 17 -18 12 5 15 2 10 -10 -5
-13 -1 -17 18 -17 14 0 25 -4 25 -10 0 -5 -11 -10 -25 -10 -19 0 -23 -4 -18
-17 5 -12 2 -15 -10 -10 -13 5 -17 1 -17 -18 0 -14 -4 -25 -10 -25 -5 0 -10
11 -10 25 0 19 -4 23 -17 18 -12 -5 -15 -2 -10 10 5 13 1 17 -18 17 -14 0 -25
5 -25 10 0 6 11 10 25 10 19 0 23 4 18 17 -5 12 -2 15 10 10 13 -5 17 -1 17
18 0 14 5 25 10 25 6 0 10 -11 10 -25z m-1638 -212 c17 -15 18 -15 18 0 0 10
5 17 10 17 6 0 10 -7 10 -17 0 -14 2 -14 20 2 26 24 39 11 15 -15 -16 -18 -16
-20 -2 -20 10 0 17 -4 17 -10 0 -5 -7 -10 -17 -10 -14 0 -14 -2 2 -20 24 -26
11 -39 -15 -15 -18 16 -20 16 -20 2 0 -10 -4 -17 -10 -17 -5 0 -10 7 -10 17 0
14 -2 14 -20 -2 -26 -24 -39 -11 -15 15 16 18 16 20 2 20 -10 0 -17 5 -17 10
0 6 7 10 17 10 15 0 15 1 0 18 -30 33 -18 45 15 15z m-1962 -989 c0 -21 3 -24
13 -15 18 14 30 2 16 -16 -9 -10 -6 -13 15 -13 14 0 26 -4 26 -10 0 -5 -12
-10 -26 -10 -21 0 -24 -3 -15 -13 14 -18 2 -30 -16 -16 -10 9 -13 6 -13 -15 0
-14 -4 -26 -10 -26 -5 0 -10 12 -10 26 0 21 -3 24 -13 15 -18 -14 -30 -2 -16
16 9 10 6 13 -15 13 -14 0 -26 5 -26 10 0 6 12 10 26 10 21 0 24 3 15 13 -14
18 -2 30 16 16 10 -9 13 -6 13 15 0 14 5 26 10 26 6 0 10 -12 10 -26z m3400
-100 c0 -21 3 -24 13 -15 8 6 17 8 20 4 4 -3 2 -12 -4 -20 -9 -10 -6 -13 15
-13 14 0 26 -4 26 -10 0 -5 -12 -10 -26 -10 -21 0 -24 -3 -15 -13 6 -8 8 -17
4 -20 -3 -4 -12 -2 -20 4 -10 9 -13 6 -13 -15 0 -14 -4 -26 -10 -26 -5 0 -10
12 -10 26 0 21 -3 24 -13 15 -8 -6 -17 -8 -20 -4 -4 3 -2 12 4 20 9 10 6 13
-15 13 -14 0 -26 5 -26 10 0 6 12 10 26 10 21 0 24 3 15 13 -6 8 -8 17 -4 20
3 4 12 2 20 -4 10 -9 13 -6 13 15 0 14 5 26 10 26 6 0 10 -12 10 -26z m1600
-99 c0 -19 4 -23 17 -18 12 5 15 2 10 -10 -5 -13 -1 -17 18 -17 14 0 25 -4 25
-10 0 -5 -11 -10 -25 -10 -19 0 -23 -4 -18 -17 5 -12 2 -15 -10 -10 -13 5 -17
1 -17 -18 0 -14 -4 -25 -10 -25 -5 0 -10 11 -10 25 0 19 -4 23 -17 18 -12 -5
-15 -2 -10 10 5 13 1 17 -18 17 -14 0 -25 5 -25 10 0 6 11 10 25 10 19 0 23 4
18 17 -5 12 -2 15 10 10 13 -5 17 -1 17 18 0 14 5 25 10 25 6 0 10 -11 10 -25z
m-2800 -101 c0 -21 3 -24 13 -15 18 14 30 2 16 -16 -9 -10 -6 -13 15 -13 14 0
26 -4 26 -10 0 -5 -12 -10 -26 -10 -21 0 -24 -3 -15 -13 14 -18 2 -30 -16 -16
-10 9 -13 6 -13 -15 0 -14 -4 -26 -10 -26 -5 0 -10 12 -10 26 0 21 -3 24 -13
15 -18 -14 -30 -2 -16 16 9 10 6 13 -15 13 -14 0 -26 5 -26 10 0 6 12 10 26
10 21 0 24 3 15 13 -14 18 -2 30 16 16 10 -9 13 -6 13 15 0 14 5 26 10 26 6 0
10 -12 10 -26z m790 -129 c0 -60 4 -95 11 -95 5 0 8 -4 5 -9 -8 -12 21 -34 33
-26 6 3 8 0 5 -8 -8 -23 11 -29 29 -9 8 9 32 44 51 76 20 33 36 55 36 49 0 -6
-20 -42 -45 -79 -25 -36 -45 -69 -45 -72 0 -3 8 -10 17 -17 22 -16 64 3 141
64 54 43 62 47 62 31 0 -10 -92 -72 -147 -98 -32 -15 -48 -40 -19 -29 9 4 13
1 11 -6 -3 -7 2 -20 10 -31 13 -17 17 -17 59 -3 28 10 60 13 83 10 l36 -6 -44
-12 c-24 -6 -55 -15 -68 -19 -18 -6 -22 -5 -16 4 5 9 4 11 -4 6 -6 -4 -9 -12
-6 -17 9 -13 -96 -120 -179 -184 -142 -108 -325 -149 -518 -116 l-57 10 -63
-63 c-89 -89 -207 -140 -389 -171 -30 -4 -45 -16 -80 -63 -70 -92 -209 -232
-273 -274 -69 -45 -126 -52 -126 -17 0 17 3 19 13 10 18 -14 30 -2 16 16 -9
10 -6 13 14 13 14 0 29 5 32 10 4 6 -7 10 -26 10 -25 0 -29 3 -20 13 14 18 2
30 -16 16 -10 -9 -13 -6 -13 14 0 14 -7 27 -15 31 -22 8 -18 53 6 69 l20 15
-20 39 c-31 62 -41 67 -127 59 -85 -8 -104 0 -104 43 0 15 -5 32 -12 39 -9 9
-9 15 0 24 17 17 15 25 -7 31 -14 3 -17 11 -14 31 3 14 1 26 -4 26 -5 0 -18 6
-28 14 -18 13 -18 15 9 37 16 14 36 50 49 89 22 64 23 65 67 73 66 12 271 0
468 -28 207 -30 244 -31 264 -7 8 9 31 51 51 93 43 89 105 152 167 169 57 15
93 51 81 82 -6 16 -16 22 -30 21 -29 -4 -18 13 14 21 32 8 65 -9 65 -34 0 -29
18 -24 39 10 10 16 21 27 24 23 11 -10 8 -62 -3 -84 -14 -25 11 -36 46 -21 28
13 32 5 7 -14 -10 -7 -15 -15 -12 -19 4 -3 23 8 42 24 19 17 44 31 55 31 12 0
28 10 36 22 l16 22 0 -22 c0 -15 -11 -27 -37 -41 -39 -19 -73 -65 -73 -96 0
-12 5 -15 16 -11 9 3 22 6 29 6 7 0 27 25 44 55 35 62 55 73 40 23 -15 -55
-13 -61 22 -54 61 12 164 72 228 131 l64 60 -6 70 c-4 38 -9 80 -13 93 -5 16
-2 22 10 22 14 0 16 -14 16 -95z m46 -20 l-16 -40 6 40 c3 22 8 51 12 65 l6
25 3 -25 c2 -14 -3 -43 -11 -65z m49 7 c-25 -68 -38 -75 -20 -12 23 81 26 87
32 72 3 -8 -3 -35 -12 -60z m40 -1 c-21 -43 -29 -39 -8 4 9 19 18 33 21 31 2
-2 -4 -18 -13 -35z m46 -86 c-28 -30 -51 -51 -51 -49 0 15 94 126 98 115 2 -6
-19 -36 -47 -66z m54 -2 c-64 -55 -86 -59 -25 -4 30 27 57 47 60 44 3 -3 -13
-21 -35 -40z m105 -29 c0 -5 -82 -43 -140 -66 -45 -17 -10 6 58 38 70 34 82
38 82 28z m20 -23 c0 -8 -18 -17 -75 -36 -11 -3 0 5 25 19 53 29 50 28 50 17z
m8 -36 c-8 -9 -120 -46 -124 -42 -5 4 119 54 125 50 2 -2 2 -5 -1 -8z m396
-61 c-22 -16 -26 -19 -60 -61 -19 -24 -22 -33 -11 -33 8 0 38 -11 66 -24 l51
-23 -37 -7 c-21 -3 -56 -6 -79 -6 -72 0 -101 -60 -35 -73 49 -10 38 -32 -16
-33 -27 -1 -67 -4 -90 -9 -35 -6 -44 -5 -49 9 -8 20 -40 20 -74 1 -36 -21 -37
-20 -48 32 -8 35 -7 51 1 62 19 22 86 48 157 61 74 13 100 31 100 71 0 19 9
34 30 49 25 18 30 19 30 5 0 -8 -7 -18 -15 -21 -15 -6 -21 -34 -7 -34 4 1 27
19 52 40 36 32 46 37 49 23 2 -9 -5 -22 -15 -29z m-387 30 c-3 -3 -12 -4 -19
-1 -8 3 -5 6 6 6 11 1 17 -2 13 -5z m-52 -14 c-11 -5 -27 -9 -35 -9 -9 0 -8 4
5 9 11 5 27 9 35 9 9 0 8 -4 -5 -9z m-2115 -35 c0 -19 4 -23 17 -18 12 5 15 2
10 -10 -5 -14 0 -17 23 -17 17 0 30 -4 30 -10 0 -5 -14 -10 -31 -10 -25 0 -29
-3 -20 -13 14 -18 2 -30 -16 -16 -10 9 -13 6 -13 -15 0 -14 -4 -26 -10 -26 -5
0 -10 11 -10 25 0 19 -4 23 -17 18 -12 -5 -15 -2 -10 10 5 13 1 17 -18 17 -14
0 -25 5 -25 10 0 6 11 10 25 10 19 0 23 4 18 17 -5 12 -2 15 10 10 13 -5 17
-1 17 18 0 14 5 25 10 25 6 0 10 -11 10 -25z m2178 18 c-10 -2 -26 -2 -35 0
-10 3 -2 5 17 5 19 0 27 -2 18 -5z m1022 -18 c0 -19 4 -23 17 -18 12 5 15 2
10 -10 -5 -13 -1 -17 18 -17 14 0 25 -4 25 -10 0 -5 -11 -10 -25 -10 -19 0
-23 -4 -18 -17 5 -12 2 -15 -10 -10 -13 5 -17 1 -17 -18 0 -14 -4 -25 -10 -25
-5 0 -10 11 -10 25 0 19 -4 23 -17 18 -12 -5 -15 -2 -10 10 5 13 1 17 -18 17
-14 0 -25 5 -25 10 0 6 11 10 25 10 19 0 23 4 18 17 -5 12 -2 15 10 10 13 -5
17 -1 17 18 0 14 5 25 10 25 6 0 10 -11 10 -25z m-4600 -200 c0 -19 4 -23 17
-18 12 5 15 2 10 -10 -5 -13 -1 -17 18 -17 14 0 25 -4 25 -10 0 -5 -11 -10
-25 -10 -19 0 -23 -4 -18 -17 5 -12 2 -15 -10 -10 -13 5 -17 1 -17 -18 0 -14
-4 -25 -10 -25 -5 0 -10 11 -10 25 0 19 -4 23 -17 18 -12 -5 -15 -2 -10 10 5
13 1 17 -18 17 -14 0 -25 5 -25 10 0 6 11 10 25 10 19 0 23 4 18 17 -5 12 -2
15 10 10 13 -5 17 -1 17 18 0 14 5 25 10 25 6 0 10 -11 10 -25z m5600 -200 c0
-19 4 -23 17 -18 12 5 15 2 10 -10 -5 -13 -1 -17 18 -17 14 0 25 -4 25 -10 0
-5 -11 -10 -25 -10 -19 0 -23 -4 -18 -17 5 -12 2 -15 -10 -10 -13 5 -17 1 -17
-18 0 -14 -4 -25 -10 -25 -5 0 -10 11 -10 25 0 19 -4 23 -17 18 -12 -5 -15 -2
-10 10 5 13 1 17 -18 17 -14 0 -25 5 -25 10 0 6 11 10 25 10 19 0 23 4 18 17
-5 12 -2 15 10 10 13 -5 17 -1 17 18 0 14 5 25 10 25 6 0 10 -11 10 -25z m-17
-187 c49 -10 87 -45 87 -79 0 -24 -47 -78 -79 -91 -50 -19 -225 -48 -415 -68
-105 -11 -245 -33 -311 -49 -66 -16 -172 -41 -235 -56 -63 -15 -184 -47 -267
-71 -84 -24 -155 -44 -158 -44 -3 0 -5 11 -5 25 0 19 5 25 18 23 11 -2 16 3
14 15 -2 12 4 17 23 17 14 0 25 5 25 10 0 6 -11 10 -25 10 -19 0 -25 5 -23 18
2 11 -3 16 -14 14 -13 -2 -18 4 -18 23 0 14 -4 25 -10 25 -5 0 -10 -11 -10
-25 0 -19 -5 -25 -17 -23 -12 2 -17 -3 -15 -14 2 -13 -4 -18 -23 -18 -14 0
-25 -4 -25 -10 0 -5 11 -10 25 -10 19 0 25 -5 23 -17 -2 -12 3 -17 13 -15 12
2 18 -7 21 -27 4 -26 1 -30 -25 -35 -16 -3 -47 -6 -67 -6 -21 0 -69 -14 -106
-31 -103 -45 -524 -149 -610 -149 -11 0 -49 -14 -83 -31 -53 -27 -62 -35 -57
-53 3 -11 9 -37 12 -56 5 -34 4 -36 -45 -64 -46 -27 -50 -33 -53 -70 -3 -39
-5 -41 -48 -51 l-45 -11 -3 -53 c-3 -48 -6 -53 -35 -66 l-32 -13 4 -119 c1
-65 5 -120 8 -123 2 -3 46 -6 96 -8 932 -26 1766 -132 2517 -322 107 -27 218
-56 245 -64 30 -10 51 -12 53 -6 2 6 14 10 28 10 18 0 22 4 17 17 -5 12 -2 15
10 10 13 -5 17 -1 17 18 0 14 5 25 10 25 6 0 10 -11 10 -25 0 -19 4 -23 17
-18 12 5 15 2 10 -10 -3 -9 -2 -17 3 -17 6 0 7 -7 1 -17 -5 -10 -23 -58 -41
-108 -46 -131 -196 -430 -288 -578 -72 -114 -232 -334 -311 -427 l-29 -35 -55
52 c-30 29 -92 76 -138 106 -343 223 -874 382 -1552 466 -96 12 -141 21 -139
29 1 7 -11 12 -29 12 -25 0 -29 3 -20 13 14 18 2 30 -16 16 -10 -9 -13 -6 -13
15 0 14 -4 26 -10 26 -5 0 -10 -12 -10 -26 0 -21 -3 -24 -13 -15 -17 14 -30 2
-17 -14 17 -20 -61 -25 -221 -15 -79 5 -169 10 -199 10 l-56 0 -12 -45 c-7
-25 -27 -85 -46 -133 -48 -123 -62 -229 -46 -354 7 -55 10 -102 6 -105 -3 -4
-28 -14 -55 -24 -27 -9 -105 -53 -174 -98 -143 -92 -163 -99 -352 -108 l-134
-6 6 22 c10 38 63 81 165 132 147 74 178 111 272 321 51 115 61 158 72 302 l7
99 -149 -7 c-727 -35 -1320 -145 -1802 -335 -169 -67 -409 -210 -487 -290 -21
-23 -42 -41 -46 -41 -10 0 -177 214 -251 320 -140 203 -274 452 -362 669 -40
99 -43 112 -28 120 25 13 242 74 447 125 632 158 1399 262 2179 298 255 11
269 13 277 32 16 38 49 250 56 352 l6 101 51 28 c63 35 167 139 223 223 50 74
99 197 122 306 l17 80 70 22 c67 21 436 139 471 150 14 4 13 1 -4 -14 -13 -11
-23 -22 -23 -24 0 -2 27 -17 61 -33 54 -26 58 -31 43 -42 -10 -7 -14 -13 -8
-13 5 1 121 -1 258 -4 241 -5 250 -4 310 18 33 13 90 28 126 35 108 19 373 41
584 48 l198 6 31 34 c44 48 124 83 215 92 93 11 349 4 415 -11z m-4983 -13 c0
-19 4 -23 17 -18 12 5 15 2 10 -10 -5 -13 -1 -17 18 -17 14 0 25 -4 25 -10 0
-5 -11 -10 -25 -10 -19 0 -23 -4 -18 -17 5 -12 2 -15 -10 -10 -13 5 -17 1 -17
-18 0 -14 -4 -25 -10 -25 -5 0 -10 11 -10 25 0 19 -4 23 -17 18 -12 -5 -15 -2
-10 10 5 13 1 17 -18 17 -14 0 -25 5 -25 10 0 6 11 10 25 10 19 0 23 4 18 17
-5 12 -2 15 10 10 13 -5 17 -1 17 18 0 14 5 25 10 25 6 0 10 -11 10 -25z
m1080 -206 c0 -11 -4 -18 -10 -14 -5 3 -7 12 -3 20 7 21 13 19 13 -6z m1110
-69 c0 -12 -44 -24 -62 -17 -8 3 -4 9 12 15 32 14 50 14 50 2z m-2735 -60 c30
-13 75 -50 133 -110 80 -82 92 -90 134 -96 l46 -6 4 -47 c6 -55 -5 -69 -58
-81 -62 -14 -103 2 -169 69 -60 61 -100 77 -111 46 -6 -14 -34 -22 -34 -10 0
20 33 65 47 65 38 0 -15 32 -61 37 -54 6 -59 19 -13 31 l32 9 -32 7 c-18 4
-33 13 -33 21 0 16 79 9 128 -11 42 -17 33 -3 -23 37 -25 18 -45 38 -45 46 0
17 0 17 55 -7z m2725 10 c-20 -13 -47 -13 -55 0 -4 6 9 10 32 10 28 0 34 -3
23 -10z m-2 -52 c-5 -15 -68 -24 -68 -9 0 9 21 16 58 20 8 0 12 -5 10 -11z
m-3178 -24 c0 -21 3 -24 13 -15 18 14 30 2 16 -16 -9 -10 -6 -13 15 -13 14 0
26 -4 26 -10 0 -5 -12 -10 -26 -10 -21 0 -24 -3 -15 -13 14 -18 2 -30 -16 -16
-10 9 -13 6 -13 -15 0 -14 -4 -26 -10 -26 -5 0 -10 12 -10 26 0 21 -3 24 -13
15 -18 -14 -30 -2 -16 16 9 10 6 13 -15 13 -14 0 -26 5 -26 10 0 6 12 10 26
10 21 0 24 3 15 13 -14 18 -2 30 16 16 10 -9 13 -6 13 15 0 14 5 26 10 26 6 0
10 -12 10 -26z m3170 -39 c0 -16 -64 -22 -74 -6 -9 14 5 21 41 21 23 0 33 -5
33 -15z m2230 -61 c0 -21 3 -24 13 -15 18 14 30 2 16 -16 -9 -10 -6 -13 15
-13 14 0 26 -4 26 -10 0 -5 -12 -10 -26 -10 -21 0 -24 -3 -15 -13 14 -18 2
-30 -16 -16 -10 9 -13 6 -13 -15 0 -14 -4 -26 -10 -26 -5 0 -10 12 -10 26 0
21 -3 24 -13 15 -18 -14 -30 -2 -16 16 9 10 6 13 -15 13 -14 0 -26 5 -26 10 0
6 12 10 26 10 21 0 24 3 15 13 -14 18 -2 30 16 16 10 -9 13 -6 13 15 0 14 5
26 10 26 6 0 10 -12 10 -26z m-2260 1 c-6 -12 -41 -8 -55 6 -7 7 1 9 25 7 19
-2 33 -7 30 -13z m-178 -12 c17 -15 18 -15 18 0 0 10 5 17 10 17 6 0 10 -7 10
-17 0 -14 2 -14 20 2 26 24 39 11 15 -15 -16 -18 -16 -20 -2 -20 23 0 22 -20
0 -21 -12 -1 -10 -3 6 -8 14 -4 26 -12 29 -19 7 -21 -28 -26 -48 -7 -18 16
-20 17 -20 2 0 -10 -4 -17 -10 -17 -5 0 -10 7 -10 17 0 14 -2 14 -20 -2 -26
-24 -39 -11 -15 15 16 18 16 20 2 20 -10 0 -17 5 -17 10 0 6 7 10 17 10 15 0
15 1 0 18 -10 10 -17 22 -17 25 0 12 13 8 32 -10z m143 -44 c-8 -11 -16 -11
-34 0 -22 14 -4 33 20 21 11 -6 17 -15 14 -21z m-75 -84 c7 -9 10 -18 7 -21
-10 -10 -47 7 -47 22 0 19 24 18 40 -1z m-1830 -61 c0 -21 3 -24 13 -15 18 14
30 2 16 -16 -9 -10 -6 -13 15 -13 14 0 26 -4 26 -10 0 -5 -11 -10 -25 -10 -19
0 -23 -4 -18 -17 5 -12 2 -15 -10 -10 -13 5 -17 1 -17 -18 0 -14 -4 -25 -10
-25 -5 0 -10 11 -10 25 0 19 -4 23 -17 18 -12 -5 -15 -2 -10 10 5 13 1 17 -18
17 -14 0 -25 5 -25 10 0 6 12 10 26 10 21 0 24 3 15 13 -14 18 -2 30 16 16 10
-9 13 -6 13 15 0 14 5 26 10 26 6 0 10 -12 10 -26z m1785 13 c12 -10 14 -16 7
-21 -14 -8 -55 17 -45 27 9 10 17 9 38 -6z m-50 -40 c10 -8 15 -19 11 -26 -6
-9 -13 -8 -27 5 -33 30 -20 47 16 21z m-47 -39 c16 -16 15 -38 -2 -38 -13 0
-26 20 -26 41 0 13 14 11 28 -3z m-44 -44 c7 -18 -1 -37 -13 -29 -5 2 -11 14
-14 25 -6 24 18 28 27 4z m-2044 -2090 c0 -21 3 -24 13 -15 8 6 17 8 20 4 4
-3 2 -12 -4 -20 -9 -10 -6 -13 15 -13 14 0 26 -4 26 -10 0 -5 -12 -10 -26 -10
-21 0 -24 -3 -15 -13 14 -18 2 -30 -16 -16 -10 9 -13 6 -13 -15 0 -14 -4 -26
-10 -26 -5 0 -10 12 -10 26 0 21 -3 24 -13 15 -18 -14 -30 -2 -16 16 9 10 6
13 -15 13 -14 0 -26 5 -26 10 0 6 12 10 26 10 21 0 24 3 15 13 -6 8 -8 17 -4
20 3 4 12 2 20 -4 10 -9 13 -6 13 15 0 14 5 26 10 26 6 0 10 -12 10 -26z
m3400 -100 c0 -21 3 -24 13 -15 18 14 30 2 16 -16 -9 -10 -6 -13 15 -13 14 0
26 -4 26 -10 0 -5 -12 -10 -26 -10 -21 0 -24 -3 -15 -13 14 -18 2 -30 -16 -16
-10 9 -13 6 -13 -15 0 -14 -4 -26 -10 -26 -5 0 -10 12 -10 26 0 21 -3 24 -13
15 -18 -14 -30 -2 -16 16 9 10 6 13 -15 13 -14 0 -26 5 -26 10 0 6 12 10 26
10 21 0 24 3 15 13 -14 18 -2 30 16 16 10 -9 13 -6 13 15 0 14 5 26 10 26 6 0
10 -12 10 -26z m-1074 -79 c8 -33 38 -48 79 -41 24 5 38 2 50 -11 10 -9 14
-18 9 -20 -10 -3 -244 -33 -256 -33 -4 0 -8 -10 -8 -21 0 -17 3 -19 13 -10 18
14 30 2 16 -16 -9 -10 -6 -13 15 -13 14 0 26 -4 26 -10 0 -5 -12 -10 -26 -10
-22 0 -24 -3 -15 -14 8 -9 8 -16 2 -20 -5 -4 -13 -1 -17 5 -4 8 -9 7 -15 -2
-8 -12 -10 -12 -18 0 -6 9 -11 10 -15 2 -4 -6 -12 -9 -17 -5 -6 4 -6 11 2 20
9 11 7 14 -15 14 -14 0 -26 5 -26 10 0 6 12 10 26 10 21 0 24 3 15 13 -14 18
-2 30 16 16 10 -9 13 -7 13 10 0 17 -5 20 -27 16 -16 -3 -107 -14 -203 -26
-202 -23 -290 -23 -274 2 3 5 1 9 -3 9 -5 0 -9 15 -8 33 0 27 4 32 25 35 22 3
26 -1 25 -25 0 -28 1 -28 67 -31 79 -3 105 8 110 45 2 20 9 29 26 31 14 2 22
-2 22 -12 0 -23 29 -46 53 -42 12 3 68 10 125 17 112 12 132 23 132 70 0 26 3
29 35 29 29 0 36 -4 41 -25z m-521 -917 c290 -18 1075 -15 1321 5 178 15 207
15 251 2 136 -41 221 -205 179 -349 -13 -44 -29 -70 -69 -110 -79 -81 -117
-91 -424 -118 -352 -31 -1084 -33 -1378 -5 -104 10 -211 23 -237 27 -66 13
-131 46 -176 89 -149 145 -84 405 118 472 26 9 107 7 415 -13z"/>
<path d="M3897 5593 c-15 -16 -19 -16 -27 -3 -9 13 -11 13 -19 1 -8 -12 -12
-13 -25 -1 -22 17 -33 5 -15 -16 11 -13 11 -18 2 -21 -19 -7 -16 -23 4 -23 14
0 14 -2 -2 -20 -24 -26 -11 -39 15 -15 18 16 20 16 20 2 0 -10 5 -17 10 -17 6
0 10 7 10 17 0 14 2 14 20 -2 26 -24 39 -11 15 15 -16 18 -16 20 -2 20 10 0
17 5 17 10 0 6 -7 10 -17 10 -15 0 -15 2 1 19 24 26 17 47 -7 24z"/>
<path d="M4950 5253 c-47 -21 -297 -100 -343 -108 -53 -10 -47 -28 6 -20 106
17 417 109 417 124 0 9 -25 22 -38 20 -4 0 -23 -8 -42 -16z"/>
<path d="M4766 5104 c-177 -51 -242 -74 -171 -61 177 34 381 81 387 90 24 38
9 36 -216 -29z"/>
<path d="M4830 4995 c-85 -12 -184 -26 -218 -30 -35 -4 -60 -11 -55 -15 4 -5
105 -2 222 7 208 15 261 26 261 54 0 13 -34 10 -210 -16z"/>
<path d="M4860 4870 c-41 -4 -121 -8 -177 -9 -61 0 -103 -5 -103 -11 0 -5 10
-10 23 -10 12 0 96 -5 186 -11 l164 -11 31 31 31 31 -40 -2 c-22 -1 -74 -4
-115 -8z"/>
<path d="M4410 4743 c0 -4 26 -19 58 -32 31 -13 123 -56 205 -94 136 -65 149
-69 172 -57 14 7 25 17 25 22 0 12 -61 37 -243 102 -163 58 -217 72 -217 59z"/>
<path d="M4385 4680 c3 -6 32 -27 63 -49 31 -21 102 -75 157 -120 100 -81 126
-92 159 -68 15 11 4 22 -106 94 -181 119 -295 179 -273 143z"/>
<path d="M4310 4626 c0 -3 46 -59 101 -123 56 -65 116 -139 133 -165 23 -36
37 -48 56 -48 64 0 56 14 -88 157 -127 128 -202 193 -202 179z"/>
<path d="M4281 4508 c7 -12 28 -47 48 -78 19 -30 56 -95 82 -145 35 -68 52
-91 69 -93 12 -2 26 0 31 5 6 6 -39 75 -111 171 -111 151 -147 193 -119 140z"/>
<path d="M4220 4323 l47 -188 33 -3 c28 -3 32 -1 26 15 -83 217 -142 363 -147
363 -4 0 14 -84 41 -187z"/>
<path d="M4132 4470 c0 -14 2 -19 5 -12 2 6 2 18 0 25 -3 6 -5 1 -5 -13z"/>
<path d="M4131 4395 c-1 -16 -8 -84 -15 -150 -13 -121 -10 -145 20 -145 11 0
14 19 13 88 -2 100 -15 252 -18 207z"/>
<path d="M4225 4070 l-29 -30 37 0 c34 0 37 2 37 30 0 17 -4 30 -8 30 -5 0
-21 -13 -37 -30z"/>
<path d="M4068 4058 c-58 -21 -21 -36 51 -22 25 5 29 9 20 20 -13 16 -33 17
-71 2z"/>
<path d="M7608 3623 c7 -3 16 -2 19 1 4 3 -2 6 -13 5 -11 0 -14 -3 -6 -6z"/>
<path d="M1450 3394 c0 -21 -3 -24 -13 -15 -18 14 -30 2 -16 -16 9 -10 6 -13
-15 -13 -14 0 -26 -4 -26 -10 0 -5 12 -10 26 -10 21 0 24 -3 15 -13 -14 -18
-2 -30 16 -16 10 9 13 6 13 -15 0 -14 5 -26 10 -26 6 0 10 12 10 26 0 21 3 24
13 15 18 -14 30 -2 16 16 -9 10 -6 13 15 13 14 0 26 5 26 10 0 6 -12 10 -26
10 -21 0 -24 3 -15 13 14 18 2 30 -16 16 -10 -9 -13 -6 -13 15 0 14 -4 26 -10
26 -5 0 -10 -12 -10 -26z"/>
<path d="M2650 3394 c0 -21 -3 -24 -13 -15 -8 6 -17 8 -20 4 -4 -3 -2 -12 4
-20 9 -10 6 -13 -15 -13 -14 0 -26 -4 -26 -10 0 -5 12 -10 26 -10 21 0 24 -3
15 -13 -14 -18 -2 -30 16 -16 10 9 13 6 13 -15 0 -14 5 -26 10 -26 6 0 10 12
10 26 0 21 3 24 13 15 18 -14 30 -2 16 16 -9 10 -6 13 15 13 14 0 26 5 26 10
0 6 -12 10 -26 10 -21 0 -24 3 -15 13 14 18 2 30 -16 16 -10 -9 -13 -6 -13 15
0 14 -4 26 -10 26 -5 0 -10 -12 -10 -26z"/>
<path d="M6650 2994 c0 -21 -3 -24 -13 -15 -18 14 -30 2 -16 -16 9 -10 6 -13
-15 -13 -14 0 -26 -4 -26 -10 0 -5 12 -10 26 -10 21 0 24 -3 15 -13 -14 -18
-2 -30 16 -16 10 9 13 5 13 -20 0 -19 4 -30 10 -26 6 3 10 18 10 32 0 20 3 23
13 14 18 -14 30 -2 16 16 -9 10 -6 13 15 13 14 0 26 5 26 10 0 6 -12 10 -26
10 -21 0 -24 3 -15 13 14 18 2 30 -16 16 -10 -9 -13 -6 -13 15 0 14 -4 26 -10
26 -5 0 -10 -12 -10 -26z"/>
</g>
</svg>
